<mxfile host="app.diagrams.net" agent="Mozilla/5.0 (Windows NT 10.0; Win64; x64) AppleWebKit/537.36 (KHTML, like Gecko) Chrome/136.0.0.0 Safari/537.36" version="27.0.5">
  <diagram name="Page-1" id="2YBvvXClWsGukQMizWep">
    <mxGraphModel dx="1281" dy="567" grid="1" gridSize="10" guides="1" tooltips="1" connect="1" arrows="1" fold="1" page="1" pageScale="1" pageWidth="850" pageHeight="1100" math="0" shadow="0">
      <root>
        <mxCell id="0" />
        <mxCell id="1" parent="0" />
        <mxCell id="rl2rtQzg3WLy2CYH5C3v-1" value="Actor" style="shape=umlActor;verticalLabelPosition=bottom;verticalAlign=top;html=1;outlineConnect=0;" parent="1" vertex="1">
          <mxGeometry x="10" y="10" width="30" height="60" as="geometry" />
        </mxCell>
        <mxCell id="rl2rtQzg3WLy2CYH5C3v-2" value="TechSupClass" style="html=1;whiteSpace=wrap;" parent="1" vertex="1">
          <mxGeometry x="230" y="40" width="90" height="20" as="geometry" />
        </mxCell>
        <mxCell id="rl2rtQzg3WLy2CYH5C3v-3" value="TechnicalSupportScreen" style="html=1;whiteSpace=wrap;" parent="1" vertex="1">
          <mxGeometry x="360" y="40" width="140" height="20" as="geometry" />
        </mxCell>
        <mxCell id="rl2rtQzg3WLy2CYH5C3v-4" value="DB" style="html=1;whiteSpace=wrap;" parent="1" vertex="1">
          <mxGeometry x="550" y="40" width="80" height="20" as="geometry" />
        </mxCell>
        <mxCell id="rl2rtQzg3WLy2CYH5C3v-5" value="HomeScreen" style="html=1;whiteSpace=wrap;" parent="1" vertex="1">
          <mxGeometry x="100" y="40" width="100" height="20" as="geometry" />
        </mxCell>
        <mxCell id="rl2rtQzg3WLy2CYH5C3v-6" value="" style="endArrow=none;dashed=1;html=1;rounded=0;fontSize=12;startSize=8;endSize=8;curved=1;" parent="1" edge="1">
          <mxGeometry width="50" height="50" relative="1" as="geometry">
            <mxPoint x="20" y="480" as="sourcePoint" />
            <mxPoint x="20" y="90" as="targetPoint" />
            <Array as="points">
              <mxPoint x="20" y="280" />
            </Array>
          </mxGeometry>
        </mxCell>
        <mxCell id="rl2rtQzg3WLy2CYH5C3v-7" value="" style="endArrow=none;dashed=1;html=1;rounded=0;fontSize=12;startSize=8;endSize=8;curved=1;entryX=0.5;entryY=1;entryDx=0;entryDy=0;" parent="1" source="rl2rtQzg3WLy2CYH5C3v-12" target="rl2rtQzg3WLy2CYH5C3v-5" edge="1">
          <mxGeometry width="50" height="50" relative="1" as="geometry">
            <mxPoint x="140" y="510" as="sourcePoint" />
            <mxPoint x="140" y="120" as="targetPoint" />
          </mxGeometry>
        </mxCell>
        <mxCell id="rl2rtQzg3WLy2CYH5C3v-9" value="" style="endArrow=none;dashed=1;html=1;rounded=0;fontSize=12;startSize=8;endSize=8;curved=1;" parent="1" source="rl2rtQzg3WLy2CYH5C3v-10" edge="1">
          <mxGeometry width="50" height="50" relative="1" as="geometry">
            <mxPoint x="590" y="300" as="sourcePoint" />
            <mxPoint x="590" y="60" as="targetPoint" />
          </mxGeometry>
        </mxCell>
        <mxCell id="rl2rtQzg3WLy2CYH5C3v-11" value="" style="endArrow=none;dashed=1;html=1;rounded=0;fontSize=12;startSize=8;endSize=8;curved=1;entryX=0.5;entryY=1;entryDx=0;entryDy=0;" parent="1" target="rl2rtQzg3WLy2CYH5C3v-12" edge="1">
          <mxGeometry width="50" height="50" relative="1" as="geometry">
            <mxPoint x="150" y="480" as="sourcePoint" />
            <mxPoint x="140" y="60" as="targetPoint" />
          </mxGeometry>
        </mxCell>
        <mxCell id="rl2rtQzg3WLy2CYH5C3v-12" value="" style="html=1;points=[[0,0,0,0,5],[0,1,0,0,-5],[1,0,0,0,5],[1,1,0,0,-5]];perimeter=orthogonalPerimeter;outlineConnect=0;targetShapes=umlLifeline;portConstraint=eastwest;newEdgeStyle={&quot;curved&quot;:0,&quot;rounded&quot;:0};fillColor=#007FFF;" parent="1" vertex="1">
          <mxGeometry x="145" y="110" width="10" height="60" as="geometry" />
        </mxCell>
        <mxCell id="rl2rtQzg3WLy2CYH5C3v-14" value="" style="html=1;points=[[0,0,0,0,5],[0,1,0,0,-5],[1,0,0,0,5],[1,1,0,0,-5]];perimeter=orthogonalPerimeter;outlineConnect=0;targetShapes=umlLifeline;portConstraint=eastwest;newEdgeStyle={&quot;curved&quot;:0,&quot;rounded&quot;:0};fillColor=#007FFF;" parent="1" vertex="1">
          <mxGeometry x="260" y="93" width="10" height="297" as="geometry" />
        </mxCell>
        <mxCell id="rl2rtQzg3WLy2CYH5C3v-17" value="" style="html=1;points=[[0,0,0,0,5],[0,1,0,0,-5],[1,0,0,0,5],[1,1,0,0,-5]];perimeter=orthogonalPerimeter;outlineConnect=0;targetShapes=umlLifeline;portConstraint=eastwest;newEdgeStyle={&quot;curved&quot;:0,&quot;rounded&quot;:0};fillColor=#007FFF;" parent="1" vertex="1">
          <mxGeometry x="440" y="240" width="10" height="220" as="geometry" />
        </mxCell>
        <mxCell id="rl2rtQzg3WLy2CYH5C3v-18" value="" style="endArrow=classic;html=1;rounded=0;fontSize=12;startSize=8;endSize=8;curved=1;" parent="1" target="rl2rtQzg3WLy2CYH5C3v-12" edge="1">
          <mxGeometry width="50" height="50" relative="1" as="geometry">
            <mxPoint x="20" y="130" as="sourcePoint" />
            <mxPoint x="130" y="129.5" as="targetPoint" />
          </mxGeometry>
        </mxCell>
        <mxCell id="rl2rtQzg3WLy2CYH5C3v-20" value="Select Technical&lt;div&gt;Support&lt;/div&gt;" style="text;html=1;align=center;verticalAlign=middle;resizable=0;points=[];autosize=1;strokeColor=none;fillColor=none;" parent="1" vertex="1">
          <mxGeometry x="35" y="93" width="110" height="40" as="geometry" />
        </mxCell>
        <mxCell id="rl2rtQzg3WLy2CYH5C3v-21" value="" style="endArrow=classic;html=1;rounded=0;entryX=1;entryY=0;entryDx=0;entryDy=5;entryPerimeter=0;" parent="1" source="rl2rtQzg3WLy2CYH5C3v-14" edge="1">
          <mxGeometry width="50" height="50" relative="1" as="geometry">
            <mxPoint x="240" y="110" as="sourcePoint" />
            <mxPoint x="155" y="110" as="targetPoint" />
          </mxGeometry>
        </mxCell>
        <mxCell id="rl2rtQzg3WLy2CYH5C3v-22" value="display()" style="text;html=1;align=center;verticalAlign=middle;resizable=0;points=[];autosize=1;strokeColor=none;fillColor=none;" parent="1" vertex="1">
          <mxGeometry x="175" y="90" width="70" height="30" as="geometry" />
        </mxCell>
        <mxCell id="rl2rtQzg3WLy2CYH5C3v-27" value="" style="edgeStyle=none;orthogonalLoop=1;jettySize=auto;html=1;rounded=0;" parent="1" source="rl2rtQzg3WLy2CYH5C3v-28" edge="1">
          <mxGeometry width="100" relative="1" as="geometry">
            <mxPoint x="150" y="170" as="sourcePoint" />
            <mxPoint x="240" y="170" as="targetPoint" />
            <Array as="points" />
          </mxGeometry>
        </mxCell>
        <mxCell id="rl2rtQzg3WLy2CYH5C3v-29" value="" style="edgeStyle=none;orthogonalLoop=1;jettySize=auto;html=1;rounded=0;" parent="1" target="rl2rtQzg3WLy2CYH5C3v-28" edge="1">
          <mxGeometry width="100" relative="1" as="geometry">
            <mxPoint x="150" y="170" as="sourcePoint" />
            <mxPoint x="240" y="170" as="targetPoint" />
            <Array as="points" />
          </mxGeometry>
        </mxCell>
        <mxCell id="rl2rtQzg3WLy2CYH5C3v-28" value="searchMessege()" style="text;html=1;align=center;verticalAlign=middle;resizable=0;points=[];autosize=1;strokeColor=none;fillColor=none;" parent="1" vertex="1">
          <mxGeometry x="150" y="140" width="120" height="30" as="geometry" />
        </mxCell>
        <mxCell id="rl2rtQzg3WLy2CYH5C3v-30" value="" style="endArrow=none;dashed=1;html=1;rounded=0;entryX=0.607;entryY=1.05;entryDx=0;entryDy=0;entryPerimeter=0;" parent="1" target="rl2rtQzg3WLy2CYH5C3v-3" edge="1">
          <mxGeometry width="50" height="50" relative="1" as="geometry">
            <mxPoint x="445" y="460" as="sourcePoint" />
            <mxPoint x="380" y="260" as="targetPoint" />
          </mxGeometry>
        </mxCell>
        <mxCell id="rl2rtQzg3WLy2CYH5C3v-31" value="" style="endArrow=classic;html=1;rounded=0;exitX=0.05;exitY=1;exitDx=0;exitDy=0;exitPerimeter=0;" parent="1" source="rl2rtQzg3WLy2CYH5C3v-28" target="rl2rtQzg3WLy2CYH5C3v-14" edge="1">
          <mxGeometry width="50" height="50" relative="1" as="geometry">
            <mxPoint x="330" y="310" as="sourcePoint" />
            <mxPoint x="380" y="260" as="targetPoint" />
          </mxGeometry>
        </mxCell>
        <mxCell id="rl2rtQzg3WLy2CYH5C3v-32" value="" style="endArrow=none;dashed=1;html=1;rounded=0;" parent="1" edge="1">
          <mxGeometry width="50" height="50" relative="1" as="geometry">
            <mxPoint x="265" y="530" as="sourcePoint" />
            <mxPoint x="264.5" y="60" as="targetPoint" />
          </mxGeometry>
        </mxCell>
        <mxCell id="rl2rtQzg3WLy2CYH5C3v-33" value="" style="endArrow=none;dashed=1;html=1;rounded=0;fontSize=12;startSize=8;endSize=8;curved=1;" parent="1" source="rl2rtQzg3WLy2CYH5C3v-47" target="rl2rtQzg3WLy2CYH5C3v-10" edge="1">
          <mxGeometry width="50" height="50" relative="1" as="geometry">
            <mxPoint x="590" y="490" as="sourcePoint" />
            <mxPoint x="590" y="60" as="targetPoint" />
          </mxGeometry>
        </mxCell>
        <mxCell id="rl2rtQzg3WLy2CYH5C3v-10" value="" style="html=1;points=[[0,0,0,0,5],[0,1,0,0,-5],[1,0,0,0,5],[1,1,0,0,-5]];perimeter=orthogonalPerimeter;outlineConnect=0;targetShapes=umlLifeline;portConstraint=eastwest;newEdgeStyle={&quot;curved&quot;:0,&quot;rounded&quot;:0};fillColor=#007FFF;" parent="1" vertex="1">
          <mxGeometry x="585" y="180" width="10" height="20" as="geometry" />
        </mxCell>
        <mxCell id="rl2rtQzg3WLy2CYH5C3v-39" value="ShowTechSupp()" style="html=1;verticalAlign=bottom;endArrow=block;curved=0;rounded=0;" parent="1" target="rl2rtQzg3WLy2CYH5C3v-17" edge="1">
          <mxGeometry width="80" relative="1" as="geometry">
            <mxPoint x="270" y="240" as="sourcePoint" />
            <mxPoint x="350" y="240" as="targetPoint" />
          </mxGeometry>
        </mxCell>
        <mxCell id="rl2rtQzg3WLy2CYH5C3v-40" value="GetMesseges()" style="html=1;verticalAlign=bottom;endArrow=block;curved=0;rounded=0;" parent="1" target="rl2rtQzg3WLy2CYH5C3v-10" edge="1">
          <mxGeometry width="80" relative="1" as="geometry">
            <mxPoint x="270" y="180" as="sourcePoint" />
            <mxPoint x="580" y="180" as="targetPoint" />
          </mxGeometry>
        </mxCell>
        <mxCell id="rl2rtQzg3WLy2CYH5C3v-41" value="return results" style="html=1;verticalAlign=bottom;endArrow=open;dashed=1;endSize=8;curved=0;rounded=0;" parent="1" target="rl2rtQzg3WLy2CYH5C3v-14" edge="1">
          <mxGeometry x="0.3016" relative="1" as="geometry">
            <mxPoint x="585" y="200" as="sourcePoint" />
            <mxPoint x="505" y="200" as="targetPoint" />
            <mxPoint as="offset" />
          </mxGeometry>
        </mxCell>
        <mxCell id="rl2rtQzg3WLy2CYH5C3v-42" value="Write messenges" style="html=1;verticalAlign=bottom;endArrow=block;curved=0;rounded=0;" parent="1" target="rl2rtQzg3WLy2CYH5C3v-17" edge="1">
          <mxGeometry x="-0.1429" width="80" relative="1" as="geometry">
            <mxPoint x="20" y="280" as="sourcePoint" />
            <mxPoint x="100" y="280" as="targetPoint" />
            <mxPoint as="offset" />
          </mxGeometry>
        </mxCell>
        <mxCell id="rl2rtQzg3WLy2CYH5C3v-43" value="Sendmess()" style="html=1;verticalAlign=bottom;endArrow=block;curved=0;rounded=0;" parent="1" edge="1">
          <mxGeometry x="-0.0952" width="80" relative="1" as="geometry">
            <mxPoint x="20" y="310" as="sourcePoint" />
            <mxPoint x="440" y="310" as="targetPoint" />
            <mxPoint as="offset" />
          </mxGeometry>
        </mxCell>
        <mxCell id="rl2rtQzg3WLy2CYH5C3v-45" style="edgeStyle=orthogonalEdgeStyle;rounded=0;orthogonalLoop=1;jettySize=auto;html=1;curved=0;exitX=0;exitY=0;exitDx=0;exitDy=5;exitPerimeter=0;entryX=1;entryY=0;entryDx=0;entryDy=5;entryPerimeter=0;" parent="1" source="rl2rtQzg3WLy2CYH5C3v-17" target="rl2rtQzg3WLy2CYH5C3v-17" edge="1">
          <mxGeometry relative="1" as="geometry" />
        </mxCell>
        <mxCell id="rl2rtQzg3WLy2CYH5C3v-46" value="UpdateBase()" style="html=1;verticalAlign=bottom;endArrow=block;curved=0;rounded=0;" parent="1" target="rl2rtQzg3WLy2CYH5C3v-47" edge="1">
          <mxGeometry width="80" relative="1" as="geometry">
            <mxPoint x="450" y="330" as="sourcePoint" />
            <mxPoint x="530" y="330" as="targetPoint" />
          </mxGeometry>
        </mxCell>
        <mxCell id="rl2rtQzg3WLy2CYH5C3v-48" value="" style="endArrow=none;dashed=1;html=1;rounded=0;fontSize=12;startSize=8;endSize=8;curved=1;" parent="1" target="rl2rtQzg3WLy2CYH5C3v-47" edge="1">
          <mxGeometry width="50" height="50" relative="1" as="geometry">
            <mxPoint x="590" y="490" as="sourcePoint" />
            <mxPoint x="590" y="200" as="targetPoint" />
          </mxGeometry>
        </mxCell>
        <mxCell id="rl2rtQzg3WLy2CYH5C3v-47" value="" style="html=1;points=[[0,0,0,0,5],[0,1,0,0,-5],[1,0,0,0,5],[1,1,0,0,-5]];perimeter=orthogonalPerimeter;outlineConnect=0;targetShapes=umlLifeline;portConstraint=eastwest;newEdgeStyle={&quot;curved&quot;:0,&quot;rounded&quot;:0};fillColor=#007FFF;" parent="1" vertex="1">
          <mxGeometry x="585" y="330" width="10" height="20" as="geometry" />
        </mxCell>
        <mxCell id="rl2rtQzg3WLy2CYH5C3v-50" value="return results" style="html=1;verticalAlign=bottom;endArrow=open;dashed=1;endSize=8;curved=0;rounded=0;" parent="1" target="rl2rtQzg3WLy2CYH5C3v-14" edge="1">
          <mxGeometry x="0.4194" relative="1" as="geometry">
            <mxPoint x="580" y="350" as="sourcePoint" />
            <mxPoint x="500" y="350" as="targetPoint" />
            <mxPoint as="offset" />
          </mxGeometry>
        </mxCell>
        <mxCell id="rl2rtQzg3WLy2CYH5C3v-52" value="ShowTechSupp()" style="html=1;verticalAlign=bottom;endArrow=block;curved=0;rounded=0;" parent="1" edge="1">
          <mxGeometry width="80" relative="1" as="geometry">
            <mxPoint x="270" y="390" as="sourcePoint" />
            <mxPoint x="440" y="390" as="targetPoint" />
          </mxGeometry>
        </mxCell>
        <mxCell id="rl2rtQzg3WLy2CYH5C3v-55" value="Selects Return" style="html=1;verticalAlign=bottom;endArrow=block;curved=0;rounded=0;entryX=0;entryY=0.818;entryDx=0;entryDy=0;entryPerimeter=0;" parent="1" target="rl2rtQzg3WLy2CYH5C3v-17" edge="1">
          <mxGeometry x="-0.1429" width="80" relative="1" as="geometry">
            <mxPoint x="20" y="420" as="sourcePoint" />
            <mxPoint x="100" y="420" as="targetPoint" />
            <Array as="points" />
            <mxPoint as="offset" />
          </mxGeometry>
        </mxCell>
        <mxCell id="rl2rtQzg3WLy2CYH5C3v-56" value="return" style="html=1;verticalAlign=bottom;endArrow=open;dashed=1;endSize=8;curved=0;rounded=0;" parent="1" target="rl2rtQzg3WLy2CYH5C3v-61" edge="1">
          <mxGeometry relative="1" as="geometry">
            <mxPoint x="450" y="460" as="sourcePoint" />
            <mxPoint x="280" y="460" as="targetPoint" />
          </mxGeometry>
        </mxCell>
        <mxCell id="rl2rtQzg3WLy2CYH5C3v-61" value="" style="html=1;points=[[0,0,0,0,5],[0,1,0,0,-5],[1,0,0,0,5],[1,1,0,0,-5]];perimeter=orthogonalPerimeter;outlineConnect=0;targetShapes=umlLifeline;portConstraint=eastwest;newEdgeStyle={&quot;curved&quot;:0,&quot;rounded&quot;:0};fillColor=#007FFF;" parent="1" vertex="1">
          <mxGeometry x="145" y="460" width="10" height="10" as="geometry" />
        </mxCell>
      </root>
    </mxGraphModel>
  </diagram>
</mxfile>
